<mxfile host="app.diagrams.net" modified="2020-08-17T21:01:21.440Z" agent="5.0 (Windows NT 10.0; Win64; x64) AppleWebKit/537.36 (KHTML, like Gecko) Chrome/84.0.4147.125 Safari/537.36" etag="D-VjykwrVLCizc2Ej6Ja" version="13.6.2" type="github">
  <diagram id="DWNmZQdUPF8J9Ky0J4yY" name="Page-1">
    <mxGraphModel dx="2170" dy="1150" grid="1" gridSize="10" guides="1" tooltips="1" connect="1" arrows="1" fold="1" page="1" pageScale="1" pageWidth="850" pageHeight="1100" math="0" shadow="0">
      <root>
        <mxCell id="0" />
        <mxCell id="1" parent="0" />
        <mxCell id="iJOhS-_2H-ktwOP1LI-H-1" value="" style="rounded=0;whiteSpace=wrap;html=1;" vertex="1" parent="1">
          <mxGeometry width="850" height="1100" as="geometry" />
        </mxCell>
        <mxCell id="iJOhS-_2H-ktwOP1LI-H-2" value="&lt;font style=&quot;font-size: 24px&quot;&gt;&lt;b&gt;Customer&lt;/b&gt;&lt;/font&gt;" style="text;html=1;strokeColor=none;fillColor=none;align=center;verticalAlign=middle;whiteSpace=wrap;rounded=0;" vertex="1" parent="1">
          <mxGeometry x="110" y="160" width="40" height="20" as="geometry" />
        </mxCell>
        <mxCell id="iJOhS-_2H-ktwOP1LI-H-3" value="&lt;font&gt;&lt;span style=&quot;font-size: 24px&quot;&gt;&lt;b&gt;Purchasing&amp;nbsp;&lt;/b&gt;&lt;/span&gt;&lt;b style=&quot;font-size: 24px&quot;&gt;Department&lt;/b&gt;&lt;/font&gt;" style="text;html=1;strokeColor=none;fillColor=none;align=center;verticalAlign=middle;whiteSpace=wrap;rounded=0;" vertex="1" parent="1">
          <mxGeometry x="405" y="160" width="40" height="20" as="geometry" />
        </mxCell>
        <mxCell id="iJOhS-_2H-ktwOP1LI-H-4" value="&lt;font style=&quot;font-size: 24px&quot;&gt;&lt;b&gt;Vendor&lt;/b&gt;&lt;/font&gt;" style="text;html=1;strokeColor=none;fillColor=none;align=center;verticalAlign=middle;whiteSpace=wrap;rounded=0;" vertex="1" parent="1">
          <mxGeometry x="700" y="160" width="40" height="20" as="geometry" />
        </mxCell>
        <mxCell id="iJOhS-_2H-ktwOP1LI-H-6" value="" style="endArrow=none;html=1;exitX=0.271;exitY=0.973;exitDx=0;exitDy=0;exitPerimeter=0;" edge="1" parent="1" source="iJOhS-_2H-ktwOP1LI-H-1">
          <mxGeometry width="50" height="50" relative="1" as="geometry">
            <mxPoint x="600" y="390" as="sourcePoint" />
            <mxPoint x="230" y="88" as="targetPoint" />
          </mxGeometry>
        </mxCell>
        <mxCell id="iJOhS-_2H-ktwOP1LI-H-7" value="" style="endArrow=none;html=1;exitX=0.271;exitY=0.973;exitDx=0;exitDy=0;exitPerimeter=0;entryX=0.721;entryY=0.073;entryDx=0;entryDy=0;entryPerimeter=0;" edge="1" parent="1" target="iJOhS-_2H-ktwOP1LI-H-1">
          <mxGeometry width="50" height="50" relative="1" as="geometry">
            <mxPoint x="609.9999999999999" y="1071.8999999999996" as="sourcePoint" />
            <mxPoint x="610" y="130" as="targetPoint" />
          </mxGeometry>
        </mxCell>
        <mxCell id="iJOhS-_2H-ktwOP1LI-H-10" value="" style="ellipse;html=1;shape=startState;fillColor=#000000;strokeColor=#ff0000;" vertex="1" parent="1">
          <mxGeometry x="100" y="260" width="30" height="30" as="geometry" />
        </mxCell>
        <mxCell id="iJOhS-_2H-ktwOP1LI-H-11" value="" style="edgeStyle=orthogonalEdgeStyle;html=1;verticalAlign=bottom;endArrow=open;endSize=8;strokeColor=#ff0000;" edge="1" source="iJOhS-_2H-ktwOP1LI-H-10" parent="1">
          <mxGeometry relative="1" as="geometry">
            <mxPoint x="115" y="350" as="targetPoint" />
          </mxGeometry>
        </mxCell>
        <mxCell id="iJOhS-_2H-ktwOP1LI-H-19" style="edgeStyle=orthogonalEdgeStyle;rounded=0;orthogonalLoop=1;jettySize=auto;html=1;exitX=1;exitY=0.5;exitDx=0;exitDy=0;entryX=0.5;entryY=0;entryDx=0;entryDy=0;" edge="1" parent="1" source="iJOhS-_2H-ktwOP1LI-H-12" target="iJOhS-_2H-ktwOP1LI-H-13">
          <mxGeometry relative="1" as="geometry" />
        </mxCell>
        <mxCell id="iJOhS-_2H-ktwOP1LI-H-12" value="&lt;font style=&quot;font-size: 20px&quot;&gt;Purchase Request&lt;/font&gt;" style="shape=ext;rounded=1;html=1;whiteSpace=wrap;strokeWidth=3;arcSize=50;" vertex="1" parent="1">
          <mxGeometry x="57.5" y="360" width="145" height="100" as="geometry" />
        </mxCell>
        <mxCell id="iJOhS-_2H-ktwOP1LI-H-17" style="edgeStyle=orthogonalEdgeStyle;rounded=0;orthogonalLoop=1;jettySize=auto;html=1;entryX=0;entryY=0.5;entryDx=0;entryDy=0;exitX=0;exitY=0.538;exitDx=0;exitDy=0;exitPerimeter=0;" edge="1" parent="1" target="iJOhS-_2H-ktwOP1LI-H-27">
          <mxGeometry relative="1" as="geometry">
            <mxPoint x="331" y="470.0400000000002" as="sourcePoint" />
            <mxPoint x="294.2500000000002" y="604.2" as="targetPoint" />
            <Array as="points">
              <mxPoint x="270" y="470" />
              <mxPoint x="270" y="960" />
            </Array>
          </mxGeometry>
        </mxCell>
        <mxCell id="iJOhS-_2H-ktwOP1LI-H-18" style="edgeStyle=orthogonalEdgeStyle;rounded=0;orthogonalLoop=1;jettySize=auto;html=1;exitX=1;exitY=0.5;exitDx=0;exitDy=0;" edge="1" parent="1" source="iJOhS-_2H-ktwOP1LI-H-13">
          <mxGeometry relative="1" as="geometry">
            <mxPoint x="500" y="680" as="targetPoint" />
            <Array as="points">
              <mxPoint x="500" y="470" />
              <mxPoint x="500" y="680" />
            </Array>
          </mxGeometry>
        </mxCell>
        <mxCell id="iJOhS-_2H-ktwOP1LI-H-13" value="&lt;font style=&quot;font-size: 18px&quot;&gt;Cost &amp;lt; 1500 ?&lt;/font&gt;" style="rhombus;whiteSpace=wrap;html=1;fillColor=#ffffc0;strokeColor=#ff0000;" vertex="1" parent="1">
          <mxGeometry x="330" y="430" width="160" height="80" as="geometry" />
        </mxCell>
        <mxCell id="iJOhS-_2H-ktwOP1LI-H-20" value="&lt;font style=&quot;font-size: 15px&quot;&gt;Yes&lt;/font&gt;" style="text;html=1;strokeColor=none;fillColor=none;align=center;verticalAlign=middle;whiteSpace=wrap;rounded=0;" vertex="1" parent="1">
          <mxGeometry x="280" y="530" width="40" height="20" as="geometry" />
        </mxCell>
        <mxCell id="iJOhS-_2H-ktwOP1LI-H-21" value="&lt;font style=&quot;font-size: 15px&quot;&gt;No&lt;/font&gt;" style="text;html=1;strokeColor=none;fillColor=none;align=center;verticalAlign=middle;whiteSpace=wrap;rounded=0;" vertex="1" parent="1">
          <mxGeometry x="510" y="500" width="40" height="20" as="geometry" />
        </mxCell>
        <mxCell id="iJOhS-_2H-ktwOP1LI-H-24" style="edgeStyle=orthogonalEdgeStyle;rounded=0;orthogonalLoop=1;jettySize=auto;html=1;entryX=0.871;entryY=0.718;entryDx=0;entryDy=0;entryPerimeter=0;exitX=1;exitY=0.5;exitDx=0;exitDy=0;" edge="1" parent="1" source="iJOhS-_2H-ktwOP1LI-H-22" target="iJOhS-_2H-ktwOP1LI-H-1">
          <mxGeometry relative="1" as="geometry">
            <Array as="points">
              <mxPoint x="740" y="715" />
            </Array>
          </mxGeometry>
        </mxCell>
        <mxCell id="iJOhS-_2H-ktwOP1LI-H-22" value="&lt;font style=&quot;font-size: 20px&quot;&gt;Request bid&lt;/font&gt;" style="shape=ext;rounded=1;html=1;whiteSpace=wrap;strokeWidth=3;arcSize=50;" vertex="1" parent="1">
          <mxGeometry x="430" y="690" width="145" height="50" as="geometry" />
        </mxCell>
        <mxCell id="iJOhS-_2H-ktwOP1LI-H-26" style="edgeStyle=orthogonalEdgeStyle;rounded=0;orthogonalLoop=1;jettySize=auto;html=1;" edge="1" parent="1" source="iJOhS-_2H-ktwOP1LI-H-23" target="iJOhS-_2H-ktwOP1LI-H-25">
          <mxGeometry relative="1" as="geometry" />
        </mxCell>
        <mxCell id="iJOhS-_2H-ktwOP1LI-H-23" value="&lt;font style=&quot;font-size: 20px&quot;&gt;Request bid&lt;/font&gt;" style="shape=ext;rounded=1;html=1;whiteSpace=wrap;strokeWidth=3;arcSize=50;" vertex="1" parent="1">
          <mxGeometry x="670" y="800" width="145" height="50" as="geometry" />
        </mxCell>
        <mxCell id="iJOhS-_2H-ktwOP1LI-H-28" style="edgeStyle=orthogonalEdgeStyle;rounded=0;orthogonalLoop=1;jettySize=auto;html=1;" edge="1" parent="1" source="iJOhS-_2H-ktwOP1LI-H-25" target="iJOhS-_2H-ktwOP1LI-H-27">
          <mxGeometry relative="1" as="geometry" />
        </mxCell>
        <mxCell id="iJOhS-_2H-ktwOP1LI-H-25" value="&lt;font style=&quot;font-size: 20px&quot;&gt;Select bid&lt;/font&gt;" style="shape=ext;rounded=1;html=1;whiteSpace=wrap;strokeWidth=3;arcSize=50;" vertex="1" parent="1">
          <mxGeometry x="430" y="800" width="145" height="50" as="geometry" />
        </mxCell>
        <mxCell id="iJOhS-_2H-ktwOP1LI-H-30" style="edgeStyle=orthogonalEdgeStyle;rounded=0;orthogonalLoop=1;jettySize=auto;html=1;entryX=0;entryY=0.5;entryDx=0;entryDy=0;" edge="1" parent="1" source="iJOhS-_2H-ktwOP1LI-H-27" target="iJOhS-_2H-ktwOP1LI-H-29">
          <mxGeometry relative="1" as="geometry" />
        </mxCell>
        <mxCell id="iJOhS-_2H-ktwOP1LI-H-27" value="&lt;font style=&quot;font-size: 20px&quot;&gt;Create Purchase Order&lt;/font&gt;" style="shape=ext;rounded=1;html=1;whiteSpace=wrap;strokeWidth=3;arcSize=50;" vertex="1" parent="1">
          <mxGeometry x="300" y="910" width="170" height="100" as="geometry" />
        </mxCell>
        <mxCell id="iJOhS-_2H-ktwOP1LI-H-29" value="" style="ellipse;html=1;shape=endState;fillColor=#000000;strokeColor=#ff0000;" vertex="1" parent="1">
          <mxGeometry x="544" y="945" width="30" height="30" as="geometry" />
        </mxCell>
        <mxCell id="iJOhS-_2H-ktwOP1LI-H-31" value="&lt;b&gt;&lt;font style=&quot;font-size: 24px&quot;&gt;CT/2015/054&lt;/font&gt;&lt;/b&gt;" style="text;html=1;strokeColor=none;fillColor=none;align=center;verticalAlign=middle;whiteSpace=wrap;rounded=0;" vertex="1" parent="1">
          <mxGeometry x="70" y="20" width="40" height="20" as="geometry" />
        </mxCell>
      </root>
    </mxGraphModel>
  </diagram>
</mxfile>
